<svg xmlns="http://www.w3.org/2000/svg" width="512" height="512" viewBox="0 0 512 512" shape-rendering="crispEdges" role="img" aria-label="영월드 섬 — 봉래산과 동강의 밤 풍경">
<title>영월드 · 봉래산과 동강</title>
<rect x="0" y="0" width="512" height="512" fill="#1c1230"/>
<rect x="0" y="280" width="512" height="40" fill="#241a3e"/>
<rect x="0" y="304" width="512" height="16" fill="#2c2350"/>
<rect x="400" y="64" width="16" height="8" fill="#f6f2c9"/>
<rect x="392" y="72" width="32" height="8" fill="#f6f2c9"/>
<rect x="384" y="80" width="48" height="8" fill="#f6f2c9"/>
<rect x="384" y="88" width="48" height="8" fill="#f6f2c9"/>
<rect x="392" y="96" width="32" height="8" fill="#f6f2c9"/>
<rect x="400" y="104" width="16" height="8" fill="#f6f2c9"/>
<rect x="400" y="72" width="8" height="8" fill="#e4dda0"/>
<rect x="416" y="88" width="8" height="8" fill="#e4dda0"/>
<rect x="48" y="32" width="8" height="8" fill="#ffffff"/>
<rect x="112" y="64" width="8" height="8" fill="#cfe3ff"/>
<rect x="176" y="24" width="8" height="8" fill="#ffffff"/>
<rect x="240" y="56" width="8" height="8" fill="#ffffff"/>
<rect x="80" y="112" width="8" height="8" fill="#cfe3ff"/>
<rect x="208" y="104" width="8" height="8" fill="#ffffff"/>
<rect x="368" y="160" width="8" height="8" fill="#cfe3ff"/>
<rect x="432" y="80" width="8" height="8" fill="#ffffff"/>
<rect x="32" y="160" width="8" height="8" fill="#ffffff"/>
<rect x="144" y="176" width="8" height="8" fill="#cfe3ff"/>
<rect x="464" y="144" width="8" height="8" fill="#ffffff"/>
<rect x="304" y="40" width="8" height="8" fill="#ffffff"/>
<rect x="-8" y="320" width="256" height="8" fill="#245c2a"/>
<rect x="120" y="320" width="128" height="8" fill="#2f7a3a"/>
<rect x="0" y="312" width="240" height="8" fill="#245c2a"/>
<rect x="120" y="312" width="120" height="8" fill="#2f7a3a"/>
<rect x="8" y="304" width="232" height="8" fill="#245c2a"/>
<rect x="120" y="304" width="120" height="8" fill="#2f7a3a"/>
<rect x="16" y="296" width="216" height="8" fill="#245c2a"/>
<rect x="120" y="296" width="112" height="8" fill="#2f7a3a"/>
<rect x="24" y="288" width="200" height="8" fill="#245c2a"/>
<rect x="120" y="288" width="104" height="8" fill="#2f7a3a"/>
<rect x="32" y="280" width="192" height="8" fill="#245c2a"/>
<rect x="120" y="280" width="104" height="8" fill="#2f7a3a"/>
<rect x="32" y="272" width="176" height="8" fill="#245c2a"/>
<rect x="120" y="272" width="88" height="8" fill="#2f7a3a"/>
<rect x="40" y="264" width="160" height="8" fill="#245c2a"/>
<rect x="120" y="264" width="80" height="8" fill="#2f7a3a"/>
<rect x="48" y="256" width="152" height="8" fill="#245c2a"/>
<rect x="120" y="256" width="80" height="8" fill="#2f7a3a"/>
<rect x="56" y="248" width="136" height="8" fill="#245c2a"/>
<rect x="120" y="248" width="72" height="8" fill="#2f7a3a"/>
<rect x="64" y="240" width="120" height="8" fill="#245c2a"/>
<rect x="120" y="240" width="64" height="8" fill="#2f7a3a"/>
<rect x="72" y="232" width="104" height="8" fill="#245c2a"/>
<rect x="120" y="232" width="56" height="8" fill="#2f7a3a"/>
<rect x="72" y="224" width="96" height="8" fill="#245c2a"/>
<rect x="120" y="224" width="48" height="8" fill="#2f7a3a"/>
<rect x="80" y="216" width="80" height="8" fill="#245c2a"/>
<rect x="120" y="216" width="40" height="8" fill="#2f7a3a"/>
<rect x="88" y="208" width="64" height="8" fill="#245c2a"/>
<rect x="120" y="208" width="32" height="8" fill="#2f7a3a"/>
<rect x="96" y="200" width="56" height="8" fill="#245c2a"/>
<rect x="120" y="200" width="32" height="8" fill="#2f7a3a"/>
<rect x="104" y="192" width="40" height="8" fill="#245c2a"/>
<rect x="120" y="192" width="24" height="8" fill="#2f7a3a"/>
<rect x="112" y="184" width="24" height="8" fill="#245c2a"/>
<rect x="120" y="184" width="16" height="8" fill="#2f7a3a"/>
<rect x="112" y="184" width="16" height="8" fill="#8ed47c"/>
<rect x="120" y="176" width="16" height="8" fill="#245c2a"/>
<rect x="120" y="176" width="16" height="8" fill="#2f7a3a"/>
<rect x="112" y="176" width="16" height="8" fill="#8ed47c"/>
<rect x="304" y="320" width="224" height="8" fill="#245c2a"/>
<rect x="416" y="320" width="112" height="8" fill="#2f7a3a"/>
<rect x="312" y="312" width="208" height="8" fill="#245c2a"/>
<rect x="416" y="312" width="104" height="8" fill="#2f7a3a"/>
<rect x="320" y="304" width="200" height="8" fill="#245c2a"/>
<rect x="416" y="304" width="104" height="8" fill="#2f7a3a"/>
<rect x="328" y="296" width="184" height="8" fill="#245c2a"/>
<rect x="416" y="296" width="96" height="8" fill="#2f7a3a"/>
<rect x="336" y="288" width="168" height="8" fill="#245c2a"/>
<rect x="416" y="288" width="88" height="8" fill="#2f7a3a"/>
<rect x="344" y="280" width="152" height="8" fill="#245c2a"/>
<rect x="416" y="280" width="80" height="8" fill="#2f7a3a"/>
<rect x="352" y="272" width="144" height="8" fill="#245c2a"/>
<rect x="416" y="272" width="80" height="8" fill="#2f7a3a"/>
<rect x="360" y="264" width="128" height="8" fill="#245c2a"/>
<rect x="416" y="264" width="72" height="8" fill="#2f7a3a"/>
<rect x="360" y="256" width="112" height="8" fill="#245c2a"/>
<rect x="416" y="256" width="56" height="8" fill="#2f7a3a"/>
<rect x="368" y="248" width="96" height="8" fill="#245c2a"/>
<rect x="416" y="248" width="48" height="8" fill="#2f7a3a"/>
<rect x="376" y="240" width="88" height="8" fill="#245c2a"/>
<rect x="416" y="240" width="48" height="8" fill="#2f7a3a"/>
<rect x="384" y="232" width="72" height="8" fill="#245c2a"/>
<rect x="416" y="232" width="40" height="8" fill="#2f7a3a"/>
<rect x="392" y="224" width="56" height="8" fill="#245c2a"/>
<rect x="416" y="224" width="32" height="8" fill="#2f7a3a"/>
<rect x="400" y="216" width="40" height="8" fill="#245c2a"/>
<rect x="416" y="216" width="24" height="8" fill="#2f7a3a"/>
<rect x="408" y="208" width="32" height="8" fill="#245c2a"/>
<rect x="416" y="208" width="24" height="8" fill="#2f7a3a"/>
<rect x="408" y="208" width="16" height="8" fill="#8ed47c"/>
<rect x="416" y="200" width="16" height="8" fill="#245c2a"/>
<rect x="416" y="200" width="16" height="8" fill="#2f7a3a"/>
<rect x="408" y="200" width="16" height="8" fill="#8ed47c"/>
<rect x="104" y="320" width="336" height="8" fill="#1f5327"/>
<rect x="280" y="320" width="160" height="8" fill="#2c7838"/>
<rect x="112" y="312" width="328" height="8" fill="#1f5327"/>
<rect x="280" y="312" width="160" height="8" fill="#2c7838"/>
<rect x="120" y="304" width="312" height="8" fill="#1f5327"/>
<rect x="280" y="304" width="152" height="8" fill="#2c7838"/>
<rect x="128" y="296" width="296" height="8" fill="#1f5327"/>
<rect x="280" y="296" width="144" height="8" fill="#2c7838"/>
<rect x="136" y="288" width="288" height="8" fill="#1f5327"/>
<rect x="280" y="288" width="144" height="8" fill="#2c7838"/>
<rect x="144" y="280" width="272" height="8" fill="#1f5327"/>
<rect x="280" y="280" width="136" height="8" fill="#2c7838"/>
<rect x="144" y="272" width="256" height="8" fill="#1f5327"/>
<rect x="280" y="272" width="120" height="8" fill="#2c7838"/>
<rect x="152" y="264" width="248" height="8" fill="#1f5327"/>
<rect x="280" y="264" width="120" height="8" fill="#2c7838"/>
<rect x="160" y="256" width="232" height="8" fill="#1f5327"/>
<rect x="280" y="256" width="112" height="8" fill="#2c7838"/>
<rect x="168" y="248" width="224" height="8" fill="#1f5327"/>
<rect x="280" y="248" width="112" height="8" fill="#2c7838"/>
<rect x="176" y="240" width="208" height="8" fill="#1f5327"/>
<rect x="280" y="240" width="104" height="8" fill="#2c7838"/>
<rect x="176" y="232" width="192" height="8" fill="#1f5327"/>
<rect x="280" y="232" width="88" height="8" fill="#2c7838"/>
<rect x="184" y="224" width="184" height="8" fill="#1f5327"/>
<rect x="280" y="224" width="88" height="8" fill="#2c7838"/>
<rect x="192" y="216" width="168" height="8" fill="#1f5327"/>
<rect x="280" y="216" width="80" height="8" fill="#2c7838"/>
<rect x="200" y="208" width="152" height="8" fill="#1f5327"/>
<rect x="280" y="208" width="72" height="8" fill="#2c7838"/>
<rect x="208" y="200" width="144" height="8" fill="#1f5327"/>
<rect x="280" y="200" width="72" height="8" fill="#2c7838"/>
<rect x="208" y="192" width="128" height="8" fill="#1f5327"/>
<rect x="280" y="192" width="56" height="8" fill="#2c7838"/>
<rect x="216" y="184" width="120" height="8" fill="#1f5327"/>
<rect x="280" y="184" width="56" height="8" fill="#2c7838"/>
<rect x="224" y="176" width="104" height="8" fill="#1f5327"/>
<rect x="280" y="176" width="48" height="8" fill="#2c7838"/>
<rect x="232" y="168" width="88" height="8" fill="#1f5327"/>
<rect x="280" y="168" width="40" height="8" fill="#2c7838"/>
<rect x="240" y="160" width="80" height="8" fill="#1f5327"/>
<rect x="280" y="160" width="40" height="8" fill="#2c7838"/>
<rect x="240" y="152" width="64" height="8" fill="#1f5327"/>
<rect x="280" y="152" width="24" height="8" fill="#2c7838"/>
<rect x="248" y="144" width="48" height="8" fill="#1f5327"/>
<rect x="280" y="144" width="16" height="8" fill="#2c7838"/>
<rect x="256" y="136" width="40" height="8" fill="#1f5327"/>
<rect x="280" y="136" width="16" height="8" fill="#2c7838"/>
<rect x="264" y="128" width="24" height="8" fill="#1f5327"/>
<rect x="280" y="128" width="8" height="8" fill="#2c7838"/>
<rect x="272" y="128" width="16" height="8" fill="#7cc96a"/>
<rect x="272" y="120" width="16" height="8" fill="#1f5327"/>
<rect x="280" y="120" width="8" height="8" fill="#2c7838"/>
<rect x="272" y="120" width="16" height="8" fill="#7cc96a"/>
<rect x="0" y="320" width="512" height="8" fill="#6fb04e"/>
<rect x="0" y="328" width="512" height="8" fill="#5f9a41"/>
<rect x="0" y="336" width="512" height="8" fill="#6fb04e"/>
<rect x="0" y="344" width="512" height="8" fill="#5f9a41"/>
<rect x="0" y="352" width="512" height="8" fill="#6fb04e"/>
<rect x="0" y="360" width="512" height="8" fill="#5f9a41"/>
<rect x="0" y="368" width="512" height="8" fill="#6fb04e"/>
<rect x="0" y="376" width="512" height="8" fill="#5f9a41"/>
<rect x="0" y="384" width="512" height="8" fill="#6fb04e"/>
<rect x="0" y="392" width="512" height="8" fill="#5f9a41"/>
<rect x="0" y="400" width="512" height="8" fill="#6fb04e"/>
<rect x="0" y="408" width="512" height="8" fill="#5f9a41"/>
<rect x="72" y="352" width="8" height="16" fill="#6b4a2b"/>
<rect x="56" y="328" width="40" height="8" fill="#245c2a"/>
<rect x="64" y="320" width="24" height="8" fill="#2f7a3a"/>
<rect x="56" y="336" width="40" height="16" fill="#2f7a3a"/>
<rect x="72" y="336" width="8" height="8" fill="#8ed47c"/>
<rect x="464" y="352" width="8" height="16" fill="#6b4a2b"/>
<rect x="448" y="328" width="40" height="8" fill="#245c2a"/>
<rect x="456" y="320" width="24" height="8" fill="#2f7a3a"/>
<rect x="448" y="336" width="40" height="16" fill="#2f7a3a"/>
<rect x="464" y="336" width="8" height="8" fill="#8ed47c"/>
<rect x="0" y="408" width="512" height="8" fill="#3f6b22"/>
<rect x="0" y="416" width="512" height="8" fill="#4aa3df"/>
<rect x="0" y="424" width="512" height="8" fill="#3f93cc"/>
<rect x="0" y="432" width="512" height="8" fill="#4aa3df"/>
<rect x="0" y="440" width="512" height="8" fill="#3f93cc"/>
<rect x="0" y="448" width="512" height="8" fill="#4aa3df"/>
<rect x="0" y="456" width="512" height="8" fill="#3f93cc"/>
<rect x="0" y="464" width="512" height="8" fill="#4aa3df"/>
<rect x="0" y="472" width="512" height="8" fill="#3f93cc"/>
<rect x="0" y="480" width="512" height="8" fill="#4aa3df"/>
<rect x="0" y="488" width="512" height="8" fill="#3f93cc"/>
<rect x="0" y="496" width="512" height="8" fill="#4aa3df"/>
<rect x="0" y="504" width="512" height="8" fill="#3f93cc"/>
<rect x="48" y="424" width="16" height="8" fill="#8fd4ec"/>
<rect x="160" y="440" width="16" height="8" fill="#8fd4ec"/>
<rect x="272" y="424" width="16" height="8" fill="#8fd4ec"/>
<rect x="384" y="448" width="16" height="8" fill="#8fd4ec"/>
<rect x="96" y="456" width="16" height="8" fill="#8fd4ec"/>
<rect x="416" y="432" width="16" height="8" fill="#8fd4ec"/>
</svg>
